<?xml version="1.0" standalone="no"?>
<!DOCTYPE svg PUBLIC "-//W3C//DTD SVG 20010904//EN"
 "http://www.w3.org/TR/2001/REC-SVG-20010904/DTD/svg10.dtd">
<svg version="1.0" xmlns="http://www.w3.org/2000/svg"
 width="300.000000pt" height="300.000000pt" viewBox="0 0 300.000000 300.000000"
 preserveAspectRatio="xMidYMid meet">
<metadata>
Created by potrace 1.10, written by Peter Selinger 2001-2011
</metadata>
<g transform="translate(0.000000,300.000000) scale(0.100000,-0.100000)"
fill="#000000" stroke="none">
<path d="M190 2599 c-44 -27 -57 -44 -71 -93 -22 -78 23 -267 139 -588 17 -46
45 -123 62 -173 57 -158 96 -232 153 -289 43 -44 63 -56 106 -65 58 -12 357
-15 466 -4 l70 7 -50 7 c-27 4 -142 8 -255 8 -243 1 -265 7 -330 80 -56 63
-90 128 -134 256 -13 39 -52 149 -86 245 -83 234 -109 330 -117 423 -5 65 -3
83 13 112 24 45 82 75 132 69 42 -5 136 -38 170 -60 12 -8 22 -11 22 -7 0 5 4
3 8 -2 4 -6 30 -21 57 -35 48 -24 295 -177 305 -190 3 -3 30 -23 60 -45 30
-22 60 -44 66 -50 6 -5 31 -26 54 -45 142 -116 312 -289 380 -390 37 -53 80
-100 80 -86 0 65 -275 365 -490 536 -205 162 -485 332 -627 379 -80 27 -138
27 -183 0z"/>
<path d="M2620 2596 c-158 -56 -430 -225 -646 -400 -195 -157 -393 -367 -448
-474 -33 -64 -8 -43 71 60 77 99 281 310 333 344 14 9 30 22 35 28 6 6 39 34
75 61 36 27 76 59 90 71 14 13 36 29 50 36 14 8 64 39 111 70 107 70 277 160
344 183 100 34 179 14 211 -54 19 -40 14 -145 -12 -240 -29 -104 -33 -116 -73
-231 -152 -434 -176 -490 -245 -567 -29 -32 -58 -54 -84 -61 -24 -8 -119 -12
-248 -13 -115 0 -229 -4 -254 -8 l-45 -7 70 -7 c109 -11 408 -8 466 4 43 9 63
21 106 65 57 57 96 131 153 289 17 50 45 126 61 170 24 68 87 258 118 360 17
54 33 187 26 221 -7 39 -46 89 -86 109 -40 21 -104 18 -179 -9z"/>
<path d="M1467 1598 c-56 -149 -70 -301 -41 -444 16 -81 65 -234 74 -234 9 0
58 158 75 238 20 99 19 199 -5 307 -20 87 -60 205 -70 205 -3 0 -18 -33 -33
-72z m63 -65 c50 -166 45 -365 -11 -505 -20 -49 -31 -34 -65 87 -23 81 -24
276 -1 365 21 81 37 120 48 120 5 0 18 -30 29 -67z"/>
<path d="M1015 1359 c-350 -62 -497 -148 -562 -327 -13 -36 -27 -100 -30 -142
-22 -287 145 -489 417 -507 248 -16 457 134 618 443 18 34 32 67 32 73 0 27
-20 6 -50 -51 -140 -265 -285 -394 -490 -436 -66 -14 -90 -14 -148 -4 -137 23
-263 116 -316 232 -76 167 -44 390 74 510 83 85 185 128 433 185 145 33 159
48 22 24z"/>
<path d="M1935 1354 c28 -8 86 -23 130 -34 257 -60 379 -132 445 -260 38 -76
52 -232 29 -342 -38 -185 -241 -332 -433 -314 -210 19 -375 143 -514 384 -23
41 -42 77 -42 81 0 4 -9 16 -20 26 -74 67 80 -209 176 -314 220 -242 554 -270
756 -64 116 119 150 347 79 535 -25 66 -102 152 -171 191 -52 29 -135 61 -200
77 -25 6 -54 13 -65 15 -43 11 -189 35 -204 34 -9 0 7 -7 34 -15z"/>
</g>
</svg>
